# xmcd
#
# Track frame offsets:
#       150
#       17119
#       37307
#       59728
#       77780
#       91083
#       104139
#       119370
#       128883
#       138629
#       161193
#       182819
#       198397
#       208270
#       226423
#       243942
#       258202
#       272233
#
# Disc length: 3852 seconds
#
# Revision: 1
# Processed by: cddbd v1.5.1PL2 Copyright (c) Steve Scherf et al.
# Submitted via: MusiCat 1.1
#
DISCID=160f0a12
DTITLE=Canterbury Christmas Ensemble and West Winds - Excelsior Christmas Favo
DTITLE=rites
DYEAR=1900
DGENRE=
TTITLE0=Jingle Bells
TTITLE1=Auld Lang Syne
TTITLE2=God Rest Ye Merry Gentlemen
TTITLE3=O' Holy Night
TTITLE4=We Wish You A Merry Christmas
TTITLE5=Gook King Wenceslas
TTITLE6=O' Come, O' Come Emmanuel
TTITLE7=Ding Dong!  Merrily on High
TTITLE8=The Cherry Tree Carol
TTITLE9=Of The Father's Heart
TTITLE10=Concerto For Flute
TTITLE11=The Coventry Carol
TTITLE12=Seven Joys of Mary
TTITLE13=Mary's Boy Child
TTITLE14=Winter
TTITLE15=Jesus, Joy of Man's Desiring
TTITLE16=And the Glory of the Lord
TTITLE17=The Twelve Days of Christmas
EXTD=Eclipse Music Group\n\n
EXTT0=
EXTT1=
EXTT2=
EXTT3=
EXTT4=
EXTT5=
EXTT6=
EXTT7=
EXTT8=
EXTT9=
EXTT10=
EXTT11=
EXTT12=
EXTT13=
EXTT14=
EXTT15=
EXTT16=
EXTT17=
PLAYORDER=
